<svg width="78" height="70" viewBox="0 0 78 70" fill="none" xmlns="http://www.w3.org/2000/svg">
<path d="M26 20.4167C23.2917 20.4167 20.9896 19.566 19.0937 17.8646C17.1979 16.1632 16.25 14.0972 16.25 11.6667C16.25 9.23611 17.1979 7.17014 19.0937 5.46875C20.9896 3.76736 23.2917 2.91666 26 2.91666C28.0583 2.91666 29.9271 3.46354 31.6062 4.55729C33.2854 5.65104 34.5042 7.04861 35.2625 8.75H61.75V14.5833H58.5V20.4167H52V14.5833H35.2625C34.5042 16.2847 33.2854 17.6823 31.6062 18.776C29.9271 19.8698 28.0583 20.4167 26 20.4167ZM26 14.5833C26.9208 14.5833 27.6927 14.3038 28.3156 13.7448C28.9385 13.1858 29.25 12.4931 29.25 11.6667C29.25 10.8403 28.9385 10.1476 28.3156 9.58854C27.6927 9.02951 26.9208 8.75 26 8.75C25.0792 8.75 24.3073 9.02951 23.6844 9.58854C23.0615 10.1476 22.75 10.8403 22.75 11.6667C22.75 12.4931 23.0615 13.1858 23.6844 13.7448C24.3073 14.3038 25.0792 14.5833 26 14.5833ZM29.25 51.0417C30.1708 51.0417 30.9427 50.7621 31.5656 50.2031C32.1885 49.6441 32.5 48.9514 32.5 48.125C32.5 47.2986 32.1885 46.6059 31.5656 46.0469C30.9427 45.4878 30.1708 45.2083 29.25 45.2083C28.3292 45.2083 27.5573 45.4878 26.9344 46.0469C26.3115 46.6059 26 47.2986 26 48.125C26 48.9514 26.3115 49.6441 26.9344 50.2031C27.5573 50.7621 28.3292 51.0417 29.25 51.0417ZM48.75 51.0417C49.6708 51.0417 50.4427 50.7621 51.0656 50.2031C51.6885 49.6441 52 48.9514 52 48.125C52 47.2986 51.6885 46.6059 51.0656 46.0469C50.4427 45.4878 49.6708 45.2083 48.75 45.2083C47.8292 45.2083 47.0573 45.4878 46.4344 46.0469C45.8115 46.6059 45.5 47.2986 45.5 48.125C45.5 48.9514 45.8115 49.6441 46.4344 50.2031C47.0573 50.7621 47.8292 51.0417 48.75 51.0417ZM16.25 42.5833L21.6125 28.5833C21.8833 27.9028 22.3302 27.3437 22.9531 26.9062C23.576 26.4687 24.2667 26.25 25.025 26.25H52.975C53.7333 26.25 54.424 26.4687 55.0469 26.9062C55.6698 27.3437 56.1167 27.9028 56.3875 28.5833L61.75 42.5833V61.8333C61.75 62.5139 61.5062 63.0729 61.0187 63.5104C60.5312 63.9479 59.9083 64.1667 59.15 64.1667H57.85C57.0917 64.1667 56.4687 63.9479 55.9812 63.5104C55.4937 63.0729 55.25 62.5139 55.25 61.8333V58.3333H22.75V61.8333C22.75 62.5139 22.5062 63.0729 22.0187 63.5104C21.5312 63.9479 20.9083 64.1667 20.15 64.1667H18.85C18.0917 64.1667 17.4687 63.9479 16.9812 63.5104C16.4937 63.0729 16.25 62.5139 16.25 61.8333V42.5833ZM24.8625 37.9167H53.1375L50.8625 32.0833H27.1375L24.8625 37.9167ZM22.75 52.5H55.25V43.75H22.75V52.5Z" fill="#FF4C30"/>
</svg>
