<svg width="80" height="80" viewBox="0 0 80 80" fill="none" xmlns="http://www.w3.org/2000/svg">
<g clip-path="url(#clip0_110_14)">
<path d="M71.6666 13.3333H62.7778V20C62.7778 20.642 62.6513 21.2777 62.4056 21.8709C62.1599 22.464 61.7998 23.003 61.3458 23.457C60.8919 23.9109 60.3529 24.271 59.7598 24.5167C59.1666 24.7624 58.5309 24.8889 57.8889 24.8889C57.2468 24.8889 56.6111 24.7624 56.018 24.5167C55.4248 24.271 54.8859 23.9109 54.4319 23.457C53.9779 23.003 53.6178 22.464 53.3721 21.8709C53.1264 21.2777 53 20.642 53 20V13.3333H27.1111V20C27.1111 21.2966 26.596 22.5401 25.6792 23.457C24.7623 24.3738 23.5188 24.8889 22.2222 24.8889C20.9256 24.8889 19.6821 24.3738 18.7652 23.457C17.8484 22.5401 17.3333 21.2966 17.3333 20V13.3333H8.44442C7.91558 13.3273 7.39091 13.4274 6.90143 13.6277C6.41195 13.828 5.9676 14.1244 5.59467 14.4994C5.22174 14.8744 4.9278 15.3204 4.73023 15.8109C4.53266 16.3015 4.43547 16.8268 4.44442 17.3555V67.0889C4.43559 67.6084 4.52918 68.1245 4.71985 68.6078C4.91052 69.0911 5.19454 69.5321 5.55567 69.9056C5.9168 70.2791 6.34797 70.5778 6.82457 70.7846C7.30116 70.9915 7.81383 71.1024 8.33331 71.1111H71.6666C72.1861 71.1024 72.6988 70.9915 73.1754 70.7846C73.652 70.5778 74.0832 70.2791 74.4443 69.9056C74.8054 69.5321 75.0894 69.0911 75.2801 68.6078C75.4708 68.1245 75.5644 67.6084 75.5555 67.0889V17.3555C75.5644 16.8361 75.4708 16.32 75.2801 15.8367C75.0894 15.3534 74.8054 14.9124 74.4443 14.5389C74.0832 14.1653 73.652 13.8666 73.1754 13.6598C72.6988 13.4529 72.1861 13.342 71.6666 13.3333ZM22.2222 57.7778H17.7778V53.3333H22.2222V57.7778ZM22.2222 46.6667H17.7778V42.2222H22.2222V46.6667ZM22.2222 35.5555H17.7778V31.1111H22.2222V35.5555ZM35.5555 57.7778H31.1111V53.3333H35.5555V57.7778ZM35.5555 46.6667H31.1111V42.2222H35.5555V46.6667ZM35.5555 35.5555H31.1111V31.1111H35.5555V35.5555ZM48.8889 57.7778H44.4444V53.3333H48.8889V57.7778ZM48.8889 46.6667H44.4444V42.2222H48.8889V46.6667ZM48.8889 35.5555H44.4444V31.1111H48.8889V35.5555ZM62.2222 57.7778H57.7778V53.3333H62.2222V57.7778ZM62.2222 46.6667H57.7778V42.2222H62.2222V46.6667ZM62.2222 35.5555H57.7778V31.1111H62.2222V35.5555Z" fill="#F24E1E"/>
<path d="M22.2222 22.2222C22.8116 22.2222 23.3768 21.9881 23.7936 21.5714C24.2103 21.1546 24.4444 20.5894 24.4444 20V6.66668C24.4444 6.07731 24.2103 5.51208 23.7936 5.09533C23.3768 4.67858 22.8116 4.44446 22.2222 4.44446C21.6329 4.44446 21.0676 4.67858 20.6509 5.09533C20.2341 5.51208 20 6.07731 20 6.66668V20C20 20.5894 20.2341 21.1546 20.6509 21.5714C21.0676 21.9881 21.6329 22.2222 22.2222 22.2222Z" fill="#F24E1E"/>
<path d="M57.7778 22.2222C58.3671 22.2222 58.9324 21.9881 59.3491 21.5714C59.7659 21.1546 60 20.5894 60 20V6.66668C60 6.07731 59.7659 5.51208 59.3491 5.09533C58.9324 4.67858 58.3671 4.44446 57.7778 4.44446C57.1884 4.44446 56.6232 4.67858 56.2064 5.09533C55.7897 5.51208 55.5555 6.07731 55.5555 6.66668V20C55.5555 20.5894 55.7897 21.1546 56.2064 21.5714C56.6232 21.9881 57.1884 22.2222 57.7778 22.2222Z" fill="#F24E1E"/>
</g>
<defs>
<clipPath id="clip0_110_14">
<rect width="80" height="80" fill="white"/>
</clipPath>
</defs>
</svg>
